<svg width="120" height="120" viewBox="0 0 120 120" fill="none" xmlns="http://www.w3.org/2000/svg">
<path d="M60 0C67.9565 0 75.5871 3.1607 81.2132 8.78679C86.8393 14.4129 90 22.0435 90 30C90 37.9565 86.8393 45.5871 81.2132 51.2132C75.5871 56.8393 67.9565 60 60 60C52.0435 60 44.4129 56.8393 38.7868 51.2132C33.1607 45.5871 30 37.9565 30 30C30 22.0435 33.1607 14.4129 38.7868 8.78679C44.4129 3.1607 52.0435 0 60 0ZM60 75C93.15 75 120 88.425 120 105V120H0V105C0 88.425 26.85 75 60 75Z" fill="white"/>
</svg>
